<?xml version="1.0" encoding="iso-8859-1"?>
<!-- Generator: Adobe Illustrator 19.0.0, SVG Export Plug-In . SVG Version: 6.00 Build 0)  -->
<svg fill="#f15c38" version="1.1" id="Layer_1" xmlns="http://www.w3.org/2000/svg" xmlns:xlink="http://www.w3.org/1999/xlink" x="0px" y="0px"
	 viewBox="0 0 488 488" style="enable-background:new 0 0 488 488;" xml:space="preserve">
<g transform="translate(0 -540.36)">
	<g>
		<g>
			<path d="M101.2,847.11h10.4c0,0.3,0,0.7,0,1v20.3c0,5.5,4.5,10,10,10s10-4.5,10-10v-20.3c0-0.3,0-0.7,0-1h61.5c0,0.3,0,0.7,0,1
				v20.3c0,5.5,4.5,10,10,10s10-4.5,10-10v-20.3c0-0.3,0-0.7,0-1h10.4c5.5,0,10-4.5,10-10v-136.9c-0.3-5.5-4.7-10-10.3-10v0h-122
				c-5.5,0-10,4.5-10,10v136.9C91.2,842.61,95.7,847.11,101.2,847.11z M213.3,827.11H111.2v-32.4c0.2,0,0.4,0,0.6,0h100.9
				c0.2,0,0.4,0,0.6,0V827.11z M172.1,710.31h41v64.5c-0.167,0-0.333,0-0.5,0h-40.5V710.31z M111.1,710.21h41.1v64.5h-40.5
				c-0.2,0-0.4,0-0.6,0V710.21z"/>
			<path d="M254.2,741.51c5.5,0,10-4.5,10-10v-21.1c0-5.5-4.5-10-10-10s-10,4.5-10,10v21.1C244.2,737.01,248.7,741.51,254.2,741.51z
				"/>
			<path d="M71,741.51c5.6,0,10-4.5,10-10v-21.1c0-5.5-4.5-10-10-10s-10,4.5-10,10v21.1C61,737.01,65.5,741.51,71,741.51z"/>
			<path d="M365.7,767.71h71.6c5.5,0,10-4.5,10-10v-42.3c0-5.5-4.5-10-10-10h-71.6c-5.5,0-10,4.5-10,10v42.3
				C355.7,763.21,360.2,767.71,365.7,767.71z M375.7,725.41h51.6v22.3h-51.6V725.41z"/>
			<path d="M365.7,863.21h71.6c5.5,0,10-4.5,10-10v-42.3c0-5.5-4.5-10-10-10h-71.6c-5.5,0-10,4.5-10,10v42.3
				C355.7,858.71,360.2,863.21,365.7,863.21z M375.7,820.91h51.6v22.3h-51.6V820.91z"/>
			<path d="M478,647.61H10c-5.5,0-10,4.5-10,10v253.5c0,5.5,4.5,10,10,10h468c5.5,0,10-4.5,10-10v-253.5
				C488,652.11,483.5,647.61,478,647.61z M468,901.11H20v-233.5h448V901.11z"/>
			<path d="M325,720.41c5.5,0,10-4.5,10-10v-10.1c0-5.5-4.5-10-10-10s-10,4.5-10,10v10.1C315,715.91,319.5,720.41,325,720.41z"/>
			<path d="M325,826.01c5.5,0,10-4.5,10-10v-10.1c0-5.5-4.5-10-10-10s-10,4.5-10,10v10.1C315,821.51,319.5,826.01,325,826.01z"/>
			<path d="M325,878.41c5.5,0,10-4.5,10-10v-10.1c0-5.5-4.5-10-10-10s-10,4.5-10,10v10.1C315,873.91,319.5,878.41,325,878.41z"/>
			<path d="M325,772.81c5.5,0,10-4.5,10-10v-10.1c0-5.5-4.5-10-10-10s-10,4.5-10,10v10.1C315,768.31,319.5,772.81,325,772.81z"/>
		</g>
	</g>
</g>
<g>
</g>
<g>
</g>
<g>
</g>
<g>
</g>
<g>
</g>
<g>
</g>
<g>
</g>
<g>
</g>
<g>
</g>
<g>
</g>
<g>
</g>
<g>
</g>
<g>
</g>
<g>
</g>
<g>
</g>
</svg>
